<svg viewBox="0 0 717.8 717.8" xmlns="http://www.w3.org/2000/svg" xmlns:xlink="http://www.w3.org/1999/xlink"><clipPath id="a" transform="translate(-153.1 -153.1)"><path d="m0 0h1024v1024h-1024z"/></clipPath><g clip-path="url(#a)"><path d="m830.9 616.53a22.45 22.45 0 0 1 -21.47-5.77l-1.51-1.51a22.45 22.45 0 0 1 -5.77-21.47 31.94 31.94 0 0 0 -39-39 22.45 22.45 0 0 1 -21.44-5.78l-1.5-1.5a22.38 22.38 0 0 1 -5.75-21.5l.17-.78c.11-.44.21-.88.29-1.32s.12-.75.17-1.12.24-2.08.29-2.74c0-1-.11-4.68-.14-5.76v-.06c-.07-.61-.67-3.7-.8-4.27a22.33 22.33 0 0 1 5.78-21.46l1.5-1.5a22.45 22.45 0 0 1 21.47-5.77 31.94 31.94 0 0 0 39-39 22.46 22.46 0 0 1 5.77-21.47l1.51-1.51a22.49 22.49 0 0 1 21.47-5.77 31.92 31.92 0 0 0 40-32.66 31.69 31.69 0 0 0 -12-23.25 31.93 31.93 0 0 0 -50.78 33 22.37 22.37 0 0 1 -5.74 21.61l-1.5 1.5a22.45 22.45 0 0 1 -21.47 5.77 31.94 31.94 0 0 0 -39 39 22.45 22.45 0 0 1 -5.77 21.47l-1.51 1.51a22.49 22.49 0 0 1 -21.38 5.79l-1.09-.27-1.22-.24-1.59-.26-1.18-.13c-.88-.08-1.77-.13-2.65-.14h-.49-.7c-.6 0-1.22 0-1.83.09l-.53.05c-.81.09-1.37.16-1.92.25l-.82.13c-.53.1-1 .22-1.57.34l-.86.21c-.52.14-1 .3-1.57.47s-1.24.43-1.86.67l-.63.25c-.64.26-1.08.47-1.53.69l-.65.32c-.5.26-1 .52-1.48.8l-.31.2a29.87 29.87 0 0 0 -2.93 2l-.34.26-.23.17-.47.42c-.71.57-1.34 1.14-2 1.73l-.49.49c-.61.62-1.2 1.29-1.77 2l-.58.7c-.54.69-1.06 1.41-1.55 2.16-.18.27-.34.52-.49.78l-.45.7a22.45 22.45 0 0 1 -19.29 10.95h-2.13a22.47 22.47 0 0 1 -19.26-11.1 31.93 31.93 0 0 0 -55.11 0 22.47 22.47 0 0 1 -19.22 11.1h-2.13a22.42 22.42 0 0 1 -19.34-11.22l-.65-1c-.15-.25-.31-.49-.47-.73l-1.28-1.74-.54-.65-.71-.84-.11-.21-.13-.05-.4-.42c-.45-.48-.74-.77-1.05-1.06l-.79-.75c-.27-.25-.49-.43-.72-.62l-.81-.68-.75-.57-1-.7c-.43-.3-.87-.58-1.31-.85l-.83-.53a22.35 22.35 0 0 1 -10.98-19.2v-2.18a22.43 22.43 0 0 1 11.11-19.25 31.95 31.95 0 0 0 0-55.12 22.46 22.46 0 0 1 -11.11-19.22v-2.13a22.38 22.38 0 0 1 11.26-19.28l.53-.35.91-.58c.68-.46 1.34-.93 2-1.43l.72-.59c.63-.53 1.23-1.07 1.81-1.64.25-.23.5-.47.73-.72s.57-.6.85-.91l1.27-1.47c.15-.21.26-.36.38-.51l.74-1c.43-.61.77-1.15 1.1-1.69l.23-.37c.32-.55.62-1.09.9-1.64l.38-.77c.18-.37.41-.85.61-1.33l.27-.71c.24-.59.42-1.05.57-1.51.1-.27.17-.52.24-.77l.27-.93c.06-.2.13-.4.18-.61.13-.5.23-1 .32-1.48l.61-4.75c0-.52 0-.86 0-1.19s0-.51 0-.75v-.36c0-.47 0-.94 0-1.41s-.06-.74-.1-1.1l-.16-1.48c-.05-.36-.11-.69-.17-1-.12-.68-.21-1.17-.32-1.66l-.18-.67a22.56 22.56 0 0 1 5.73-21.61l1.51-1.51a22.45 22.45 0 0 1 21.47-5.77 31.94 31.94 0 0 0 39-39 22.45 22.45 0 0 1 5.77-21.47l1.51-1.5a22.38 22.38 0 0 1 21.6-5.74 31.93 31.93 0 0 0 33-50.78 31.95 31.95 0 0 0 -47.6-2.73 32.09 32.09 0 0 0 -8.31 30.66 22.43 22.43 0 0 1 -5.77 21.46l-1.51 1.51a22.45 22.45 0 0 1 -21.47 5.77 31.94 31.94 0 0 0 -39 39 22.45 22.45 0 0 1 -5.88 21.38l-1.51 1.5a22.37 22.37 0 0 1 -21.49 5.75l-.77-.17c-.43-.1-.89-.21-1.34-.29l-1-.16-1.29-.19c-.57-.06-1-.08-1.5-.11l-3.21-.06-1 .07c-.4 0-.8 0-1.2.08l-.35.05c-.91.11-1.79.26-2.67.44l-1.55.34a22.41 22.41 0 0 1 -21.59-5.75l-1.5-1.5a22.46 22.46 0 0 1 -5.77-21.47 31.94 31.94 0 0 0 -39-39 22.46 22.46 0 0 1 -21.47-5.77l-1.51-1.51a22.4 22.4 0 0 1 -5.76-21.46 31.93 31.93 0 0 0 -32.67-40 31.93 31.93 0 0 0 -23.57 51.32 32.1 32.1 0 0 0 33.24 11.6 22.37 22.37 0 0 1 21.61 5.74l1.5 1.5a22.45 22.45 0 0 1 5.77 21.47 31.94 31.94 0 0 0 39 39 22.44 22.44 0 0 1 21.47 5.77l1.51 1.51a22.46 22.46 0 0 1 5.79 21.38c-.1.38-.19.72-.27 1.07l-.23 1.2c-.1.54-.19 1.08-.26 1.62l-.14 1.18c-.08.9-.13 1.78-.14 2.67v.59.59c0 .61 0 1.23.09 1.85l.08.76c.06.56.13 1.11.21 1.66l.14.81c.1.55.22 1.07.34 1.59l.2.85c.14.53.31 1.05.48 1.58s.43 1.24.67 1.86l.25.63c.26.63.47 1.08.69 1.52l.32.65c.26.52.52 1 .8 1.49l.19.3a30.48 30.48 0 0 0 2 2.93l.44.6c.17.18.3.33.43.49.55.66 1.11 1.3 1.71 1.91l.49.5c.63.62 1.29 1.21 2 1.77l.66.55c.72.57 1.44 1.09 2.19 1.58l1.45.93a22.44 22.44 0 0 1 11.04 19.18v2.13a22.46 22.46 0 0 1 -11.11 19.26 31.95 31.95 0 0 0 0 55.12 22.43 22.43 0 0 1 11.11 19.21v2.13a22.4 22.4 0 0 1 -11.23 19.34l-3.38 2.33c-.35.28-.72.58-1.08.89l-.79.68c-.21.19-.41.39-.61.59l-.66.65c-.36.37-.56.57-.75.78l-.7.81c-.29.33-.6.7-.9 1.09l-1.53 2.14c-.33.49-.6.89-.84 1.31a22.57 22.57 0 0 1 -19.34 11.26h-2.13a22.46 22.46 0 0 1 -19.26-11.11 31.93 31.93 0 0 0 -55.11 0 22.47 22.47 0 0 1 -19.26 11.11h-2.13a22.42 22.42 0 0 1 -19.3-11.25l-.85-1.32a27.18 27.18 0 0 0 -1.77-2.45l-.17-.22c-.52-.63-1.21-1.38-1.92-2.1l-.49-.5c-.4-.39-.8-.75-1.21-1.11l-.58-.51c-.17-.14-.33-.29-.51-.43l-1.89-1.41c-.44-.3-.88-.58-1.34-.86l-.69-.42c-.46-.27-.92-.53-1.4-.78l-.74-.36c-.5-.24-.94-.45-1.4-.65l-.75-.3-.65-.25-.83-.31c-.56-.19-1.12-.34-1.68-.5l-.51-.15c-1-.25-1.78-.43-2.62-.57l-1.12-.16-.44-.06-2.11-.18h-.32c-.33 0-.66 0-1 0h-1.12c-.55 0-1 0-1.4 0s-.67.05-1 .09l-1.15.09a3.82 3.82 0 0 1 -.48.09l-1.17.2h-.26l-1.16.23-.71.18a22.55 22.55 0 0 1 -21.62-5.72l-1.51-1.51a22.45 22.45 0 0 1 -5.77-21.47 31.94 31.94 0 0 0 -39-39 22.44 22.44 0 0 1 -21.47-5.77l-1.5-1.5a22.4 22.4 0 0 1 -5.69-21.54 31.93 31.93 0 0 0 -50.77-33 31.67 31.67 0 0 0 -12 23.25 31.92 31.92 0 0 0 39.95 32.66 22.47 22.47 0 0 1 21.47 5.77l1.51 1.51a22.46 22.46 0 0 1 5.77 21.47 31.94 31.94 0 0 0 39 39 22.46 22.46 0 0 1 21.36 5.82l1.5 1.5a22.39 22.39 0 0 1 5.75 21.5c-.07.25-.12.52-.18.78l-.24 1.14c-.14.75-.26 1.52-.35 2.29v.26c-.06.51-.08.95-.11 1.4l-.07 1.4v1.3l.07 1.49c0 .45.05.89.1 1.34v.29c.12 1 .28 1.94.49 2.9l.29 1.33a22.43 22.43 0 0 1 -5.74 21.58l-1.51 1.5a22.46 22.46 0 0 1 -21.47 5.77 31.94 31.94 0 0 0 -39 39 22.46 22.46 0 0 1 -5.77 21.47l-1.51 1.51a22.46 22.46 0 0 1 -21.47 5.77 31.93 31.93 0 0 0 -39.95 32.66 31.93 31.93 0 0 0 51.32 23.57 32.12 32.12 0 0 0 11.56-33.27 22.39 22.39 0 0 1 5.74-21.61l1.5-1.5a22.47 22.47 0 0 1 21.47-5.77 31.94 31.94 0 0 0 39-39 22.45 22.45 0 0 1 5.77-21.47l1.51-1.51a22.43 22.43 0 0 1 21.38-5.78l1.14.27 1.13.22c.55.11 1.09.19 1.62.27l1.18.13c.9.08 1.8.13 2.7.14h.5.61c.63 0 1.27 0 1.9-.09l.73-.07c.57-.06 1.16-.14 1.74-.23l.74-.13c.57-.1 1.14-.23 1.71-.36l.72-.17c.65-.18 1.33-.38 2-.6l.76-.28c.69-.26 1.15-.43 1.59-.62l1.19-.55.88-.44c.43-.22.84-.44 1.25-.67l.75-.46c.58-.36 1.16-.74 1.72-1.14s.83-.58 1.22-.88l.21-.17.37-.31c.89-.73 1.64-1.4 2.31-2.06l.22-.21c.5-.51 1.19-1.28 1.94-2.18l.34-.42c.62-.77 1.2-1.58 1.75-2.42l.84-1.32a22.43 22.43 0 0 1 19.16-11.09h2.14a22.47 22.47 0 0 1 19.26 11.11 31.94 31.94 0 0 0 55.11 0 22.46 22.46 0 0 1 19.26-11.11h2.12a22.39 22.39 0 0 1 19.34 11.22l.49.77c.26.41.46.73.66 1l.72 1q.27.39.57.75l1.84 2.13c.45.47.76.77 1.07 1.07l4.08 3.34c.27.19.55.36.83.54l1.28.81a22.46 22.46 0 0 1 10.94 19.18v2.13a22.46 22.46 0 0 1 -11.11 19.26 31.95 31.95 0 0 0 0 55.12 22.46 22.46 0 0 1 11.11 19.26v2.12a22.39 22.39 0 0 1 -11.26 19.3l-1.29.83c-.94.62-1.69 1.17-2.37 1.7l-.17.14c-.68.56-1.42 1.23-2.25 2l-.51.5c-.37.39-.74.79-1.1 1.19l-.23.27-.26.3c-.15.17-.31.35-.45.53l-.2.23c-.13.2-.24.34-.35.49l-.43.58c-.14.19-.29.38-.42.58-.32.46-.6.9-.88 1.35l-.42.7c-.26.45-.52.92-.76 1.38l-.44.89c-.17.35-.38.8-.57 1.25-.12.28-.22.52-.31.77l-.23.6c-.11.29-.23.58-.33.88-.19.56-.35 1.12-.51 1.68l-.15.52c-.24.94-.42 1.77-.57 2.61l-.14 1.09-.06.44-.21 2.51v.93s0 .56 0 .83v.26 1.46c0 .26.05.56.08.86l.18 1.69c.06.42.14.84.22 1.26l.06.37c.05.27.12.64.21 1s.14.58.21.87a22.47 22.47 0 0 1 -5.76 21.46l-1.51 1.51a22.45 22.45 0 0 1 -21.47 5.77 31.94 31.94 0 0 0 -39 39 22.45 22.45 0 0 1 -5.77 21.47l-1.5 1.5a22.37 22.37 0 0 1 -21.56 5.75 31.93 31.93 0 0 0 -33 50.78 31.69 31.69 0 0 0 23.25 12 31.93 31.93 0 0 0 32.67-40 22.42 22.42 0 0 1 5.76-21.47l1.51-1.51a22.45 22.45 0 0 1 21.47-5.77 31.94 31.94 0 0 0 39-39 22.46 22.46 0 0 1 5.82-21.32l1.51-1.5a22.36 22.36 0 0 1 21.49-5.75c.24.07.48.11.72.16l1.17.26c.72.13 1.42.25 2.13.33l.75.1c.32 0 .74.05 1.17.07l1.31.07h1.3l1.28-.06c.63 0 1.1-.06 1.57-.11h.3c1-.12 1.93-.29 2.88-.48l.35-.08 1-.21a22.37 22.37 0 0 1 21.58 5.74l1.5 1.5a22.46 22.46 0 0 1 5.77 21.47 31.94 31.94 0 0 0 39 39 22.46 22.46 0 0 1 21.47 5.77l1.51 1.51a22.45 22.45 0 0 1 5.77 21.47 31.92 31.92 0 0 0 32.66 40 31.68 31.68 0 0 0 23.25-12 31.93 31.93 0 0 0 -33-50.78 22.37 22.37 0 0 1 -21.61-5.74l-1.5-1.5a22.45 22.45 0 0 1 -5.77-21.47 31.94 31.94 0 0 0 -39-39 22.45 22.45 0 0 1 -21.47-5.77l-1.51-1.51a22.46 22.46 0 0 1 -5.79-21.38c.11-.4.2-.77.28-1.14l.22-1.12c.1-.55.19-1.09.26-1.63l.14-1.2c.08-.87.13-1.77.14-2.68v-.5-.61q0-.95-.09-1.89v-.52c-.08-.78-.16-1.38-.25-2l-.12-.69c-.11-.61-.23-1.18-.37-1.74l-.16-.67c-.19-.72-.39-1.39-.62-2.05-.07-.23-.17-.47-.26-.71l-.1-.28c-.17-.46-.34-.92-.53-1.36s-.34-.74-.52-1.11-.32-.68-.47-1-.44-.83-.68-1.25l-.46-.75c-.35-.59-.73-1.16-1.13-1.72s-.59-.83-.9-1.23l-.44-.54c-.75-.92-1.43-1.67-2.08-2.34s-1.48-1.4-2.4-2.16l-.21-.17a29.78 29.78 0 0 0 -2.62-1.91l-1.3-.83a22.46 22.46 0 0 1 -11.12-19.31v-2.13a22.46 22.46 0 0 1 11.11-19.26 31.95 31.95 0 0 0 0-55.12 22.45 22.45 0 0 1 -11.11-19.26v-2.12a22.4 22.4 0 0 1 11.09-19.25l.9-.57c.38-.24.76-.48 1.13-.74l.83-.6c.32-.23.63-.48.94-.72l2-1.72q.65-.6 1.26-1.26l.5-.52c.3-.33.53-.61.76-.88l.39-.46.87-1.12.49-.68c.53-.76 1-1.44 1.4-2.15a22.46 22.46 0 0 1 19.26-11.15h2.18a22.47 22.47 0 0 1 19.26 11.11 31.94 31.94 0 0 0 55.11 0 22.46 22.46 0 0 1 19.22-11.11h2.13a22.39 22.39 0 0 1 19.33 11.22l.36.55c.16.27.37.59.58.9.45.68.92 1.34 1.42 2l.6.73c.52.63 1.07 1.23 1.63 1.81l.72.72c.3.3.6.57.91.84l1.49 1.3.33.24 1.18.86c.6.42 1.14.77 1.69 1.1l.37.22c.55.33 1.09.63 1.64.91l.67.33c.49.24 1 .46 1.45.66l.73.29c.55.22 1 .4 1.48.56l.75.23 1 .28.6.18c.47.12 1 .21 1.44.31l5.11.63h.86 1.1 1.46l.92-.08 1.19-.1a4.71 4.71 0 0 1 .48-.09c.31 0 .65-.1 1-.16.7-.13 1.18-.21 1.65-.32l.88-.23a22.45 22.45 0 0 1 21.4 5.78l1.51 1.51a22.45 22.45 0 0 1 5.77 21.47 31.94 31.94 0 0 0 39 39 22.45 22.45 0 0 1 21.47 5.77l1.51 1.51a22.37 22.37 0 0 1 5.73 21.6 31.93 31.93 0 0 0 50.78 33 31.95 31.95 0 0 0 2.73-47.6 32.08 32.08 0 0 0 -30.65-8.31" transform="translate(-153.1 -153.1)"/><path d="m652.91 326a32.05 32.05 0 0 0 -8.32 30.65 22.46 22.46 0 0 1 -5.77 21.47l-1.51 1.51a22.44 22.44 0 0 1 -21.47 5.76 31.93 31.93 0 0 0 -40 32.67 31.69 31.69 0 0 0 12 23.25 31.93 31.93 0 0 0 50.78-33 22.39 22.39 0 0 1 5.74-21.61l1.5-1.5a22.45 22.45 0 0 1 21.47-5.77 31.94 31.94 0 0 0 39-39 22.45 22.45 0 0 1 5.82-21.43l1.5-1.51a22.48 22.48 0 0 1 21.47-5.77 31.93 31.93 0 0 0 40-32.66 31.93 31.93 0 0 0 -51.32-23.57 32.07 32.07 0 0 0 -11.49 33.28 22.4 22.4 0 0 1 -5.74 21.61l-1.5 1.5a22.45 22.45 0 0 1 -21.47 5.77 32.05 32.05 0 0 0 -30.69 8.35" transform="translate(-153.1 -153.1)"/><path d="m371.11 698.05a32.07 32.07 0 0 0 8.31-30.65 22.46 22.46 0 0 1 5.77-21.47l1.52-1.51a22.43 22.43 0 0 1 21.46-5.76 31.94 31.94 0 0 0 40-32.67 31.71 31.71 0 0 0 -12-23.25 31.93 31.93 0 0 0 -50.77 33 22.41 22.41 0 0 1 -5.74 21.61l-1.5 1.5a22.46 22.46 0 0 1 -21.47 5.77 31.93 31.93 0 0 0 -39 39 22.5 22.5 0 0 1 -5.82 21.38l-1.51 1.51a22.45 22.45 0 0 1 -21.47 5.77 31.72 31.72 0 0 0 -8-1 31.94 31.94 0 0 0 -31.96 33.72 31.93 31.93 0 0 0 51.33 23.57 32.09 32.09 0 0 0 11.48-33.28 22.42 22.42 0 0 1 5.74-21.61l1.5-1.5a22.48 22.48 0 0 1 21.47-5.77 32.07 32.07 0 0 0 30.66-8.32" transform="translate(-153.1 -153.1)"/><path d="m735.26 712.26a22.37 22.37 0 0 1 -21.61-5.74l-1.5-1.5a22.45 22.45 0 0 1 -5.77-21.47 31.94 31.94 0 0 0 -39-39 22.45 22.45 0 0 1 -21.47-5.77l-1.51-1.5a22.46 22.46 0 0 1 -5.77-21.47 31.92 31.92 0 0 0 -32.66-40 31.93 31.93 0 0 0 -23.57 51.32 32.1 32.1 0 0 0 33.28 11.49 22.37 22.37 0 0 1 21.61 5.74l1.5 1.5a22.46 22.46 0 0 1 5.77 21.47 31.94 31.94 0 0 0 39 39 22.53 22.53 0 0 1 21.44 5.81l1.51 1.51a22.47 22.47 0 0 1 5.77 21.47 31.92 31.92 0 0 0 32.66 40 31.69 31.69 0 0 0 23.25-12 31.93 31.93 0 0 0 -33-50.78" transform="translate(-153.1 -153.1)"/><path d="m288.76 311.74a22.35 22.35 0 0 1 21.6 5.74l1.51 1.5a22.5 22.5 0 0 1 5.77 21.47 31.93 31.93 0 0 0 39 39 22.42 22.42 0 0 1 21.46 5.77l1.52 1.51a22.45 22.45 0 0 1 5.76 21.46 31.93 31.93 0 0 0 32.67 40 31.93 31.93 0 0 0 23.56-51.32 32.09 32.09 0 0 0 -33.28-11.49 22.36 22.36 0 0 1 -21.6-5.74l-1.51-1.5a22.5 22.5 0 0 1 -5.77-21.47 31.93 31.93 0 0 0 -39-39 22.44 22.44 0 0 1 -21.45-5.81l-1.51-1.51a22.45 22.45 0 0 1 -5.77-21.47 31.93 31.93 0 0 0 -32.72-39.95 31.69 31.69 0 0 0 -23.25 12 31.94 31.94 0 0 0 33 50.78" transform="translate(-153.1 -153.1)"/></g></svg>