<svg width="100" height="100" viewBox="0 0 100 100" fill="none" xmlns="http://www.w3.org/2000/svg">
<path d="M43.7473 0.272499C36.1492 1.21024 28.7856 3.94531 22.4376 8.16513C12.5934 14.7098 5.42507 24.2825 2.06553 35.4182C1.26471 37.9969 0.483422 41.9237 0.190439 44.5611C-0.0634797 47.0031 -0.0634797 52.9812 0.190439 55.4232C2.29992 75.233 16.3045 92.1513 35.4265 97.934C38.0048 98.735 41.9308 99.5165 44.5676 99.8095C47.0091 100.063 52.986 100.063 55.4275 99.8095C66.9906 98.5787 77.7138 93.3235 85.9563 84.8448C91.6012 79.0035 95.6053 72.2439 97.9296 64.5662C99.375 59.8189 100 55.4232 100 49.9922C100 45.9091 99.8047 43.6624 99.1015 40.1264C95.5662 22.1531 82.1671 7.38368 64.5686 2.0503C61.9903 1.24931 58.0644 0.467865 55.4275 0.17482C52.8688 -0.0986862 46.2669 -0.0400772 43.7473 0.272499ZM58.2011 41.025V46.124L59.08 45.2058C59.5683 44.7174 60.4668 44.0727 61.0919 43.7797C62.088 43.3108 62.4396 43.2522 64.3537 43.2522C66.3655 43.2522 66.5804 43.2912 67.8109 43.8773C70.9361 45.3621 72.733 48.4488 72.987 52.8249C73.2604 57.6699 71.4049 61.753 68.2016 63.3159C66.932 63.941 66.8343 63.9606 64.4514 63.9606C62.0489 63.9606 61.9708 63.941 60.6426 63.2768C59.7051 62.8079 59.08 62.3391 58.6503 61.753L58.0253 60.9325L57.9667 62.2414L57.9081 63.5698L55.8963 63.6284L53.904 63.6871V50.0703C53.904 42.5879 53.8845 36.434 53.8454 36.395C53.8063 36.3559 50.4859 42.4121 46.4622 49.8554L39.1377 63.3745L23.1798 63.4331C14.4099 63.4526 7.22203 63.4331 7.22203 63.394C7.22203 63.3354 21.6563 36.6489 21.9493 36.141C22.047 35.9847 26.8519 35.9261 40.1533 35.9261H58.2011V41.025ZM87.1673 43.4475C88.769 43.8578 89.7651 44.4244 90.8589 45.5184C91.9137 46.5733 92.6559 48.0386 92.8707 49.4842L93.0075 50.4024L90.9175 50.3438L88.8276 50.2852L88.4565 49.3279C87.7728 47.5111 86.4056 46.6319 84.2766 46.6319C80.9366 46.6515 79.1005 49.113 79.1005 53.6064C79.1005 58.002 80.9561 60.6003 84.0813 60.5808C85.4876 60.5808 86.054 60.3854 86.9916 59.5454C87.8119 58.8421 88.3783 57.8457 88.5737 56.7712L88.7104 56.0484H90.8589H93.0075L92.8707 56.7712C92.4801 58.9398 91.3082 61.0887 89.9604 62.1828C88.144 63.6675 86.3665 64.1559 83.4367 64.0192C81.7179 63.941 81.3077 63.8433 80.0381 63.2377C76.659 61.6358 74.823 58.3146 74.8035 53.8408C74.8035 48.5465 77.3426 44.5806 81.4639 43.4671C82.8507 43.0959 85.761 43.0764 87.1673 43.4475Z" fill="black" fill-opacity="0.8"/>
<path d="M62.3615 46.6903C60.0177 47.1396 58.6504 48.8784 58.1621 52.0237C57.9863 53.1763 57.9863 53.8406 58.1621 55.0127C58.7481 58.7246 60.5255 60.6001 63.5139 60.6001C65.2914 60.6001 66.6196 59.8577 67.5376 58.373C68.4556 56.8491 68.6509 56.0286 68.6509 53.5085C68.6509 51.3985 68.6118 51.1836 68.0454 49.9919C67.7134 49.2886 67.2055 48.4486 66.9125 48.0969C65.9555 46.9638 64.0413 46.3582 62.3615 46.6903Z" fill="black" fill-opacity="0.8"/>
</svg>
