<svg width="100" height="101" viewBox="0 0 100 101" fill="none" xmlns="http://www.w3.org/2000/svg">
<g clip-path="url(#clip0)">
<path d="M50.0003 1.02295C22.3862 1.02295 0 23.4091 0 51.0233C0 75.7899 18.0261 96.3008 41.6613 100.273V61.4547H29.5997V47.4857H41.6613V37.1855C41.6613 25.2343 48.9607 18.7216 59.6235 18.7216C64.7304 18.7216 69.1191 19.1021 70.3931 19.2697V31.7619L62.9977 31.7655C57.2001 31.7655 56.0824 34.5199 56.0824 38.5633V47.4785H69.916L68.1117 61.4475H56.0824V100.607C80.821 97.5957 100 76.5623 100 51.0089C100 23.4091 77.6138 1.02295 50.0003 1.02295Z" fill="#010002" fill-opacity="0.8"/>
</g>
<defs>
<clipPath id="clip0">
<rect width="100" height="100" fill="white" transform="translate(0 0.673828)"/>
</clipPath>
</defs>
</svg>
