<svg width="100" height="101" viewBox="0 0 100 101" fill="none" xmlns="http://www.w3.org/2000/svg">
<g clip-path="url(#clip0)">
<path d="M59.5703 50.6738C59.5703 55.9595 55.2856 60.2441 50 60.2441C44.7144 60.2441 40.4297 55.9595 40.4297 50.6738C40.4297 45.3882 44.7144 41.1035 50 41.1035C55.2856 41.1035 59.5703 45.3882 59.5703 50.6738Z" fill="black" fill-opacity="0.8"/>
<path d="M72.3817 33.741C71.9217 32.4944 71.1877 31.366 70.234 30.4398C69.3078 29.4861 68.1802 28.7521 66.9328 28.2921C65.9211 27.8992 64.4014 27.4315 61.6021 27.3041C58.574 27.166 57.6661 27.1362 50.0001 27.1362C42.3333 27.1362 41.4254 27.1652 38.3981 27.3033C35.5989 27.4315 34.0783 27.8992 33.0674 28.2921C31.82 28.7521 30.6917 29.4861 29.7662 30.4398C28.8125 31.366 28.0786 32.4936 27.6178 33.741C27.2249 34.7527 26.7572 36.2732 26.6298 39.0724C26.4917 42.0998 26.4619 43.0077 26.4619 50.6744C26.4619 58.3405 26.4917 59.2484 26.6298 62.2765C26.7572 65.0757 27.2249 66.5955 27.6178 67.6071C28.0786 68.8545 28.8118 69.9821 29.7654 70.9084C30.6917 71.862 31.8193 72.596 33.0667 73.056C34.0783 73.4497 35.5989 73.9174 38.3981 74.0448C41.4254 74.1829 42.3326 74.2119 49.9994 74.2119C57.6669 74.2119 58.5748 74.1829 61.6014 74.0448C64.4006 73.9174 65.9211 73.4497 66.9328 73.056C69.4368 72.0901 71.4158 70.1111 72.3817 67.6071C72.7746 66.5955 73.2423 65.0757 73.3705 62.2765C73.5086 59.2484 73.5376 58.3405 73.5376 50.6744C73.5376 43.0077 73.5086 42.0998 73.3705 39.0724C73.2431 36.2732 72.7754 34.7527 72.3817 33.741ZM50.0001 65.4167C41.8573 65.4167 35.2563 58.8165 35.2563 50.6737C35.2563 42.5308 41.8573 35.9306 50.0001 35.9306C58.1422 35.9306 64.7432 42.5308 64.7432 50.6737C64.7432 58.8165 58.1422 65.4167 50.0001 65.4167ZM65.326 38.7932C63.4233 38.7932 61.8806 37.2505 61.8806 35.3477C61.8806 33.445 63.4233 31.9023 65.326 31.9023C67.2288 31.9023 68.7715 33.445 68.7715 35.3477C68.7707 37.2505 67.2288 38.7932 65.326 38.7932Z" fill="black" fill-opacity="0.8"/>
<path d="M50 0.673828C22.39 0.673828 0 23.0638 0 50.6738C0 78.2838 22.39 100.674 50 100.674C77.61 100.674 100 78.2838 100 50.6738C100 23.0638 77.61 0.673828 50 0.673828ZM78.5378 62.5108C78.3989 65.5672 77.9129 67.6538 77.2034 69.4803C75.7118 73.3369 72.6631 76.3857 68.8065 77.8772C66.9807 78.5867 64.8933 79.072 61.8378 79.2116C58.7761 79.3512 57.798 79.3848 50.0008 79.3848C42.2028 79.3848 41.2254 79.3512 38.163 79.2116C35.1074 79.072 33.02 78.5867 31.1943 77.8772C29.2778 77.1562 27.5429 76.0263 26.1086 74.5653C24.6483 73.1317 23.5184 71.396 22.7974 69.4803C22.0879 67.6546 21.6019 65.5672 21.463 62.5116C21.3219 59.4492 21.2891 58.4711 21.2891 50.6738C21.2891 42.8766 21.3219 41.8985 21.4622 38.8368C21.6011 35.7805 22.0863 33.6938 22.7959 31.8674C23.5168 29.9516 24.6475 28.2159 26.1086 26.7824C27.5421 25.3214 29.2778 24.1914 31.1935 23.4705C33.02 22.7609 35.1067 22.2757 38.163 22.1361C41.2247 21.9965 42.2028 21.9629 50 21.9629C57.7972 21.9629 58.7753 21.9965 61.837 22.1368C64.8933 22.2757 66.98 22.7609 68.8065 23.4697C70.7222 24.1907 72.4579 25.3214 73.8922 26.7824C75.3525 28.2167 76.4832 29.9516 77.2034 31.8674C77.9137 33.6938 78.3989 35.7805 78.5385 38.8368C78.6781 41.8985 78.7109 42.8766 78.7109 50.6738C78.7109 58.4711 78.6781 59.4492 78.5378 62.5108Z" fill="black" fill-opacity="0.8"/>
</g>
<defs>
<clipPath id="clip0">
<rect width="100" height="100" fill="white" transform="translate(0 0.673828)"/>
</clipPath>
</defs>
</svg>
