<svg width="100" height="101" viewBox="0 0 100 101" fill="none" xmlns="http://www.w3.org/2000/svg">
<g clip-path="url(#clip0)">
<path d="M50 0.673828C22.3875 0.673828 0 23.0613 0 50.6738C0 78.2863 22.3875 100.674 50 100.674C77.6125 100.674 100 78.2863 100 50.6738C100 23.0613 77.6125 0.673828 50 0.673828ZM23.2625 61.4363C21.7875 60.1113 20.8333 58.1447 20.8333 55.9238C20.8333 53.7072 21.7875 51.7447 23.2625 50.4113V61.4363ZM28.125 63.1738C27.2417 63.1738 26.7792 63.1863 25.6958 62.8405V49.0155C26.8458 48.6488 27.3917 48.6613 28.125 48.7197V63.1738ZM32.9875 63.1738H30.5542V49.403L31.3042 49.8405C31.6375 48.4738 32.2292 47.2238 32.9875 46.1113V63.1738ZM37.8458 63.1738H35.4167V43.5655C36.1667 43.0072 36.9708 42.5238 37.8458 42.1905V63.1738ZM42.7083 63.1738H40.2792V41.6447C41.1958 41.5488 41.4708 41.478 42.7083 41.6655V63.1738ZM47.5708 63.1738H45.1375V42.3947L46.0625 42.8405C46.4958 42.0863 47.0125 41.3988 47.5708 40.7572V63.1738ZM72.0917 63.1738H50V38.5738C51.9375 37.2405 54.2333 36.4405 56.7125 36.4405C63.3083 36.4405 68.6542 41.8863 69.1458 48.7822C73.8958 46.4572 79.1667 50.1988 79.1667 55.6238C79.1667 59.7905 75.9958 63.1738 72.0917 63.1738Z" fill="black" fill-opacity="0.8"/>
</g>
<defs>
<clipPath id="clip0">
<rect width="100" height="100" fill="white" transform="translate(0 0.673828)"/>
</clipPath>
</defs>
</svg>
