<svg width="100" height="101" viewBox="0 0 100 101" fill="none" xmlns="http://www.w3.org/2000/svg">
<g clip-path="url(#clip0)">
<path d="M50 100.674C77.6208 100.674 100 78.2947 100 50.6738C100 23.053 77.6208 0.673828 50 0.673828C22.3792 0.673828 0 23.053 0 50.6738C0 78.2947 22.3792 100.674 50 100.674ZM22.8792 49.5905L71.0875 31.003C73.325 30.1947 75.2792 31.5488 74.5542 34.9322L74.5583 34.928L66.35 73.5988C65.7417 76.3405 64.1125 77.0072 61.8333 75.7155L49.3333 66.503L43.3042 72.3113C42.6375 72.978 42.075 73.5405 40.7833 73.5405L41.6708 60.8197L64.8375 39.8905C65.8458 39.003 64.6125 38.503 63.2833 39.3863L34.6542 57.4113L22.3125 53.5613C19.6333 52.7113 19.575 50.8822 22.8792 49.5905Z" fill="black" fill-opacity="0.8"/>
</g>
<defs>
<clipPath id="clip0">
<rect width="100" height="100" fill="white" transform="translate(0 0.673828)"/>
</clipPath>
</defs>
</svg>
