<svg width="100" height="101" viewBox="0 0 100 101" fill="none" xmlns="http://www.w3.org/2000/svg">
<g clip-path="url(#clip0)">
<path d="M50 0.673828C22.3867 0.673828 0 23.0595 0 50.6738C0 78.2881 22.3867 100.674 50 100.674C77.6133 100.674 100 78.2881 100 50.6738C100 23.0595 77.6133 0.673828 50 0.673828ZM75.3627 56.0815C77.6931 58.3577 80.1586 60.4999 82.2506 63.0114C83.1775 64.1224 84.0511 65.2713 84.7161 66.5633C85.6655 68.4058 84.8082 70.4263 83.1591 70.5357L72.9156 70.5337C70.2701 70.7526 68.1647 69.6856 66.3898 67.8769C64.9729 66.4355 63.6583 64.8958 62.2936 63.4053C61.7361 62.7935 61.1488 62.2176 60.4491 61.7644C59.0527 60.8559 57.8394 61.1342 57.0394 62.593C56.224 64.0774 56.0378 65.7224 55.9601 67.3746C55.8486 69.7899 55.1202 70.4211 52.6967 70.5347C47.5182 70.7772 42.6046 69.9915 38.0378 67.3807C34.0092 65.0779 30.891 61.8278 28.1739 58.148C22.8829 50.9746 18.8307 43.1014 15.1898 35.0022C14.3703 33.1782 14.9698 32.2022 16.9821 32.1644C20.3253 32.0999 23.6685 32.1081 27.0118 32.1613C28.3724 32.1828 29.2726 32.9613 29.7954 34.2452C31.602 38.6902 33.8169 42.9194 36.5923 46.8416C37.332 47.8861 38.087 48.9275 39.1621 49.6651C40.3488 50.4795 41.2532 50.2104 41.8128 48.8856C42.1708 48.0436 42.3253 47.1434 42.4031 46.2411C42.6691 43.1506 42.7008 40.061 42.2404 36.9828C41.954 35.0564 40.8706 33.8124 38.9504 33.4482C37.9724 33.2631 38.1156 32.9009 38.5913 32.3424C39.4169 31.3766 40.1903 30.7792 41.7361 30.7792L53.3095 30.7772C55.1335 31.1352 55.5427 31.9536 55.7903 33.791L55.8005 46.6523C55.779 47.3633 56.1575 49.4708 57.4343 49.9362C58.4573 50.2738 59.1325 49.4534 59.7442 48.8058C62.5197 45.8605 64.4972 42.3843 66.268 38.7864C67.0496 37.1997 67.7238 35.5577 68.3785 33.9127C68.8655 32.6963 69.6225 32.0979 70.9954 32.1183L82.1402 32.1316C82.4685 32.1316 82.802 32.1347 83.1274 32.191C85.0056 32.5122 85.5202 33.3204 84.9391 35.1526C84.0246 38.0314 82.2476 40.4293 80.5105 42.8334C78.6486 45.4073 76.6629 47.8912 74.8194 50.4764C73.1253 52.8396 73.2593 54.0293 75.3627 56.0815Z" fill="black" fill-opacity="0.8"/>
</g>
<defs>
<clipPath id="clip0">
<rect width="100" height="100" fill="white" transform="translate(0 0.673828)"/>
</clipPath>
</defs>
</svg>
